<svg version="1.1" id="Layer_1" xmlns="http://www.w3.org/2000/svg" xmlns:xlink="http://www.w3.org/1999/xlink" x="0px" y="0px"
	 width="100%" viewBox="0 0 400 400" enable-background="new 0 0 400 400" xml:space="preserve">
<path fill="currentColor" opacity="1.000000" stroke="none" 
	d="
M155.377518,181.386780 
	C149.820297,167.696457 149.820297,167.698776 163.998688,167.693054 
	C167.996597,167.691437 171.994720,167.692871 175.992371,167.654404 
	C179.896591,167.616837 181.755844,165.433334 181.907852,161.705734 
	C182.071213,157.699829 179.335434,156.491241 176.079849,156.420364 
	C168.753677,156.260941 161.419205,156.234634 154.093689,156.400879 
	C150.567459,156.480896 148.998703,155.400253 148.906891,151.620590 
	C148.699936,143.102188 148.537949,143.056351 157.099091,142.848694 
	C162.260391,142.723480 167.426300,142.796692 172.589828,142.748672 
	C174.085953,142.734756 175.621750,142.802155 177.068146,142.495926 
	C180.095764,141.854980 182.470505,140.093079 182.436310,136.829086 
	C182.398468,133.219009 179.781525,131.493790 176.439301,131.442902 
	C168.790298,131.326385 161.136292,131.550858 153.486694,131.452393 
	C151.839264,131.431198 149.180878,131.973145 148.960892,129.504242 
	C148.643082,125.937172 146.902420,122.277740 148.662766,118.747437 
	C149.416336,117.236183 151.345856,117.720978 152.802612,117.719284 
	C160.132111,117.710762 167.461685,117.753876 174.791199,117.784477 
	C178.424423,117.799652 181.603195,117.208855 181.628006,112.547043 
	C181.649017,108.599083 178.795090,105.885208 174.139328,106.576797 
	C166.767120,107.671928 159.516144,106.248688 152.214676,106.383636 
	C148.632202,106.449860 147.562469,104.930450 148.034042,101.469482 
	C151.637161,75.024910 172.472717,56.803497 198.376862,56.544529 
	C212.287979,56.405460 224.969208,58.918076 235.942017,68.346672 
	C246.375031,77.311424 252.000793,88.340614 253.446884,101.883820 
	C253.901505,106.141617 252.131012,107.158112 248.490906,107.128662 
	C241.495651,107.072060 234.499451,107.138336 227.503632,107.143593 
	C225.077637,107.145416 222.817856,107.416962 221.662628,110.023613 
	C219.814087,114.194687 222.004837,117.546219 226.983337,117.652290 
	C234.309464,117.808403 241.649780,117.907883 248.968216,117.623581 
	C255.009720,117.388885 253.985840,121.495544 254.084625,125.038094 
	C254.181747,128.520203 254.351486,131.771118 249.068512,131.478622 
	C242.591766,131.120071 236.079727,131.374893 229.583237,131.414108 
	C228.095169,131.423096 226.578918,131.489746 225.127289,131.784317 
	C222.442703,132.329086 220.553787,133.791397 220.425049,136.785721 
	C220.284439,140.056900 222.273880,141.786346 225.129959,142.284882 
	C227.724564,142.737778 230.425278,142.637451 233.080704,142.673920 
	C236.744705,142.724243 240.410187,142.653778 244.074875,142.670990 
	C252.329514,142.709747 254.260300,145.420563 252.280579,153.715897 
	C251.679916,156.232788 249.958099,156.245407 248.121033,156.247421 
	C241.625153,156.254593 235.129211,156.192291 228.633270,156.167053 
	C223.361938,156.146561 220.226395,158.084793 220.580048,161.507507 
	C221.048355,166.039581 224.410294,167.565170 228.401184,167.562027 
	C234.219452,167.557465 240.040665,167.259033 245.854477,166.964844 
	C250.106033,166.749710 250.962479,168.521500 249.911896,172.449005 
	C244.622620,192.222153 229.310547,205.102951 207.839737,208.464127 
	C187.157684,211.701843 164.009384,200.482407 155.377518,181.386780 
z"/>
<path fill="currentColor" opacity="1.000000" stroke="none" 
	d="
M248.708313,221.744659 
	C238.813370,230.027481 227.344025,233.902573 215.285172,236.048859 
	C210.994522,236.812546 209.735565,238.643707 209.879013,242.651382 
	C210.178772,251.025574 207.836639,250.854004 218.175369,250.865158 
	C225.168533,250.872696 232.168289,250.805573 239.151993,251.091782 
	C242.888031,251.244904 245.907288,253.088394 246.994568,256.972626 
	C248.001724,260.570557 246.572556,263.459747 243.954407,265.915588 
	C242.065048,267.687775 239.586227,267.759979 237.367630,267.769073 
	C213.054321,267.869019 188.738693,267.955292 164.427628,267.688141 
	C158.072266,267.618317 155.227936,264.905151 154.689880,260.459869 
	C153.970596,254.517532 157.111542,251.094193 163.955368,250.922241 
	C171.945709,250.721497 179.945312,250.917877 187.939117,250.810150 
	C190.407013,250.776917 193.383896,251.641464 193.702728,247.313889 
	C194.330109,238.798737 193.899704,237.114517 188.801575,236.444748 
	C170.379013,234.024460 154.899200,225.961472 142.441956,212.289429 
	C125.406517,193.592758 119.470749,171.118866 120.809265,146.358109 
	C121.054741,141.817139 123.788895,138.977020 128.266663,138.242264 
	C132.203033,137.596375 135.342834,140.388657 136.613724,145.137436 
	C137.711166,149.238159 137.217850,153.420364 137.316391,157.566132 
	C137.826431,179.024841 146.326736,196.690842 163.308258,209.703110 
	C171.983673,216.350739 182.344330,219.807953 193.400131,220.708420 
	C207.853226,221.885574 221.700806,219.991791 234.199051,212.158051 
	C250.941635,201.663971 260.893005,186.628479 263.730896,166.965866 
	C264.566589,161.175476 264.730927,155.372559 264.742126,149.540665 
	C264.745575,147.744598 265.143463,145.919205 265.575745,144.160080 
	C266.584503,140.055038 269.336426,137.710388 273.514160,138.094299 
	C277.780121,138.486313 280.833496,141.274750 281.055847,145.534149 
	C282.213135,167.700073 278.522400,188.589874 264.255524,206.588013 
	C259.779358,212.234833 255.055130,217.541534 248.708313,221.744659 
z"/>
<path fill="currentColor" opacity="1.000000" stroke="none" 
	d="
M310.743469,331.242889 
	C308.557343,328.316101 306.565186,325.689178 304.613586,323.115753 
	C299.695129,325.400055 298.904022,329.259247 298.943085,333.944305 
	C299.001984,341.007660 297.609985,342.316681 291.559448,342.443604 
	C284.904755,342.583191 282.970490,340.838776 282.942566,333.908966 
	C282.871460,316.261658 282.857208,298.612640 283.032806,280.966400 
	C283.124084,271.793945 284.739288,270.353210 292.350800,270.629822 
	C296.489532,270.780182 298.553467,272.787170 298.652588,276.742035 
	C298.844360,284.393463 298.873108,292.049011 298.957031,299.703003 
	C298.980469,301.839142 298.960602,303.975739 298.960602,307.466766 
	C304.011841,302.406189 308.216858,298.272217 312.328461,294.047394 
	C315.221924,291.074219 324.587372,289.154724 328.053772,291.164124 
	C331.212219,292.995026 330.702423,295.606079 328.639496,297.857727 
	C325.498901,301.285645 322.184418,304.566650 318.788605,307.744232 
	C316.024353,310.330811 315.726868,312.530945 318.193542,315.742157 
	C322.649048,321.542450 326.640320,327.704559 330.710968,333.792145 
	C331.957306,335.656006 333.789978,337.596893 332.451355,340.132263 
	C331.128204,342.638336 328.533905,342.023987 326.276398,342.436829 
	C317.334137,344.072174 314.611359,337.185822 310.743469,331.242889 
z"/>
<path fill="currentColor" opacity="1.000000" stroke="none" 
	d="
M164.532196,331.408875 
	C157.188904,342.449432 146.697433,344.976898 134.958282,342.725189 
	C124.073296,340.637329 116.968109,333.770294 114.287170,322.799927 
	C111.275909,310.478027 115.870430,299.518036 126.956047,292.307281 
	C134.609741,287.328857 149.900131,287.838257 156.893341,293.304657 
	C167.882446,301.894501 171.918304,313.580231 167.823181,325.433716 
	C167.129791,327.440765 165.787918,329.223755 164.532196,331.408875 
M153.524643,314.831604 
	C153.308212,314.028381 153.107498,313.220520 152.872925,312.422638 
	C150.828537,305.468964 146.624237,302.546173 139.615387,303.197906 
	C133.443436,303.771881 130.123260,307.498413 129.391769,314.672821 
	C128.670792,321.744476 132.100891,327.428680 138.095779,329.096741 
	C146.152222,331.338348 152.341675,325.954987 153.524643,314.831604 
z"/>
<path fill="currentColor" opacity="1.000000" stroke="none" 
	d="
M199.953766,288.792877 
	C206.769531,289.367462 212.685211,290.726349 217.862137,295.099792 
	C227.517349,303.256500 229.487030,313.702423 226.242447,324.896118 
	C223.189041,335.430359 215.400848,341.889801 204.207535,343.169891 
	C192.108231,344.553558 181.913193,340.685394 175.642044,329.938812 
	C166.053085,313.506653 175.278732,292.226227 194.573349,289.466553 
	C196.216797,289.231476 197.862854,289.014801 199.953766,288.792877 
M211.486343,312.342865 
	C210.605301,309.662231 209.784119,307.012024 207.202896,305.289429 
	C203.098587,302.550446 198.779816,302.469238 194.408066,304.176941 
	C189.272842,306.182922 188.423737,310.955536 187.862839,315.598358 
	C187.250366,320.668030 190.270660,326.443451 194.061722,328.259491 
	C199.129333,330.686981 204.281036,329.975128 208.324936,326.127228 
	C212.106430,322.529053 212.027802,317.869232 211.486343,312.342865 
z"/>
<path fill="currentColor" opacity="1.000000" stroke="none" 
	d="
M103.348740,317.000000 
	C103.346985,323.491364 103.394234,329.483307 103.328354,335.473969 
	C103.268883,340.881531 101.207390,342.786896 95.618248,342.810303 
	C90.153366,342.833191 87.729317,340.758514 87.694786,335.514771 
	C87.599442,321.036224 87.474792,306.553375 87.747406,292.079468 
	C87.834869,287.435883 86.373703,285.760742 81.798866,286.149933 
	C78.499588,286.430603 75.124725,286.368835 71.829529,286.022491 
	C66.968147,285.511597 65.443176,283.110046 65.692688,277.619537 
	C65.896576,273.133057 68.364449,271.620300 72.543655,271.639618 
	C87.854622,271.710449 103.166367,271.621521 118.477234,271.702118 
	C123.839073,271.730316 125.978233,273.865295 126.123184,278.787750 
	C126.253922,283.227478 124.181526,285.592743 119.153580,286.030273 
	C115.352554,286.361084 111.500336,286.308411 107.681053,286.161774 
	C104.448700,286.037689 103.252090,287.295105 103.305305,290.538300 
	C103.447266,299.190125 103.350410,307.845856 103.348740,317.000000 
z"/>
<path fill="currentColor" opacity="1.000000" stroke="none" 
	d="
M256.312256,288.922302 
	C261.297363,288.564697 265.763885,289.170319 270.021210,290.636475 
	C275.104980,292.387268 278.037689,297.230164 276.595520,300.830658 
	C274.865967,305.148621 270.233398,306.531403 264.682922,304.386475 
	C256.401337,301.186096 249.719711,304.003510 247.102936,311.799347 
	C244.517334,319.502319 248.712143,326.915863 256.745850,329.216003 
	C260.367493,330.252930 263.242676,328.519012 266.275848,327.270355 
	C270.712463,325.444000 274.590881,326.452271 276.559357,330.076324 
	C278.447205,333.551910 276.957367,337.714172 272.915955,340.255219 
	C261.909821,347.175323 243.933807,343.312531 235.208267,332.036499 
	C228.716187,323.646759 228.333862,305.617157 238.534561,296.766754 
	C243.674576,292.307129 249.105927,289.392517 256.312256,288.922302 
z"/>
</svg>